<mxfile host="app.diagrams.net" modified="2023-04-07T08:21:17.302Z" agent="Mozilla/5.0 (Macintosh; Intel Mac OS X 10_15_7) AppleWebKit/537.36 (KHTML, like Gecko) Chrome/111.0.0.0 Safari/537.36" etag="wbiFSkqbrir6gCJMB3iY" version="21.1.1" type="github">
  <diagram name="Page-1" id="P_dPkDTr9ITofjrYH3Pt">
    <mxGraphModel dx="1026" dy="660" grid="1" gridSize="10" guides="1" tooltips="1" connect="1" arrows="1" fold="1" page="1" pageScale="1" pageWidth="850" pageHeight="1100" math="0" shadow="0">
      <root>
        <mxCell id="0" />
        <mxCell id="1" parent="0" />
        <mxCell id="0tk76ltDWNP5zIAs27Ty-5" value="" style="edgeStyle=orthogonalEdgeStyle;rounded=0;orthogonalLoop=1;jettySize=auto;html=1;" edge="1" parent="1" source="0tk76ltDWNP5zIAs27Ty-1" target="0tk76ltDWNP5zIAs27Ty-4">
          <mxGeometry relative="1" as="geometry" />
        </mxCell>
        <mxCell id="0tk76ltDWNP5zIAs27Ty-1" value="React front end" style="rounded=1;whiteSpace=wrap;html=1;" vertex="1" parent="1">
          <mxGeometry x="120" y="240" width="120" height="60" as="geometry" />
        </mxCell>
        <mxCell id="0tk76ltDWNP5zIAs27Ty-2" value="Visiter" style="shape=umlActor;verticalLabelPosition=bottom;verticalAlign=top;html=1;outlineConnect=0;" vertex="1" parent="1">
          <mxGeometry x="70" y="230" width="30" height="60" as="geometry" />
        </mxCell>
        <mxCell id="0tk76ltDWNP5zIAs27Ty-7" value="" style="edgeStyle=orthogonalEdgeStyle;rounded=0;orthogonalLoop=1;jettySize=auto;html=1;" edge="1" parent="1" source="0tk76ltDWNP5zIAs27Ty-4" target="0tk76ltDWNP5zIAs27Ty-6">
          <mxGeometry relative="1" as="geometry" />
        </mxCell>
        <mxCell id="0tk76ltDWNP5zIAs27Ty-17" value="" style="edgeStyle=orthogonalEdgeStyle;rounded=0;orthogonalLoop=1;jettySize=auto;html=1;" edge="1" parent="1" source="0tk76ltDWNP5zIAs27Ty-4" target="0tk76ltDWNP5zIAs27Ty-16">
          <mxGeometry relative="1" as="geometry" />
        </mxCell>
        <mxCell id="0tk76ltDWNP5zIAs27Ty-22" value="" style="edgeStyle=orthogonalEdgeStyle;rounded=0;orthogonalLoop=1;jettySize=auto;html=1;" edge="1" parent="1" source="0tk76ltDWNP5zIAs27Ty-4" target="0tk76ltDWNP5zIAs27Ty-20">
          <mxGeometry relative="1" as="geometry">
            <Array as="points">
              <mxPoint x="490" y="270" />
              <mxPoint x="490" y="210" />
            </Array>
          </mxGeometry>
        </mxCell>
        <mxCell id="0tk76ltDWNP5zIAs27Ty-29" style="edgeStyle=orthogonalEdgeStyle;rounded=0;orthogonalLoop=1;jettySize=auto;html=1;exitX=1;exitY=0.75;exitDx=0;exitDy=0;entryX=0;entryY=0.5;entryDx=0;entryDy=0;" edge="1" parent="1" source="0tk76ltDWNP5zIAs27Ty-4" target="0tk76ltDWNP5zIAs27Ty-30">
          <mxGeometry relative="1" as="geometry">
            <mxPoint x="520" y="310" as="targetPoint" />
          </mxGeometry>
        </mxCell>
        <mxCell id="0tk76ltDWNP5zIAs27Ty-4" value="Golang &lt;br&gt;broker" style="whiteSpace=wrap;html=1;rounded=1;" vertex="1" parent="1">
          <mxGeometry x="320" y="240" width="120" height="60" as="geometry" />
        </mxCell>
        <mxCell id="0tk76ltDWNP5zIAs27Ty-14" style="edgeStyle=orthogonalEdgeStyle;rounded=0;orthogonalLoop=1;jettySize=auto;html=1;entryX=0;entryY=0.5;entryDx=0;entryDy=0;" edge="1" parent="1" source="0tk76ltDWNP5zIAs27Ty-6" target="0tk76ltDWNP5zIAs27Ty-13">
          <mxGeometry relative="1" as="geometry" />
        </mxCell>
        <mxCell id="0tk76ltDWNP5zIAs27Ty-6" value="Golang&lt;br&gt;Logger" style="whiteSpace=wrap;html=1;rounded=1;" vertex="1" parent="1">
          <mxGeometry x="370" y="380" width="120" height="60" as="geometry" />
        </mxCell>
        <mxCell id="0tk76ltDWNP5zIAs27Ty-10" value="gPRC" style="text;html=1;strokeColor=none;fillColor=none;align=center;verticalAlign=middle;whiteSpace=wrap;rounded=0;" vertex="1" parent="1">
          <mxGeometry x="380" y="320" width="60" height="30" as="geometry" />
        </mxCell>
        <mxCell id="0tk76ltDWNP5zIAs27Ty-13" value="Mongo" style="shape=datastore;whiteSpace=wrap;html=1;" vertex="1" parent="1">
          <mxGeometry x="670" y="370" width="120" height="80" as="geometry" />
        </mxCell>
        <mxCell id="0tk76ltDWNP5zIAs27Ty-15" value="Http&lt;br&gt;logging user&lt;br&gt;interaction" style="text;html=1;strokeColor=none;fillColor=none;align=center;verticalAlign=middle;whiteSpace=wrap;rounded=0;" vertex="1" parent="1">
          <mxGeometry x="420" y="430" width="260" height="30" as="geometry" />
        </mxCell>
        <mxCell id="0tk76ltDWNP5zIAs27Ty-19" style="edgeStyle=orthogonalEdgeStyle;rounded=0;orthogonalLoop=1;jettySize=auto;html=1;entryX=-0.008;entryY=0.625;entryDx=0;entryDy=0;entryPerimeter=0;" edge="1" parent="1" source="0tk76ltDWNP5zIAs27Ty-16" target="0tk76ltDWNP5zIAs27Ty-18">
          <mxGeometry relative="1" as="geometry" />
        </mxCell>
        <mxCell id="0tk76ltDWNP5zIAs27Ty-16" value="&lt;span style=&quot;color: rgb(0, 0, 0); font-family: Helvetica; font-size: 12px; font-style: normal; font-variant-ligatures: normal; font-variant-caps: normal; font-weight: 400; letter-spacing: normal; orphans: 2; text-align: center; text-indent: 0px; text-transform: none; widows: 2; word-spacing: 0px; -webkit-text-stroke-width: 0px; background-color: rgb(251, 251, 251); text-decoration-thickness: initial; text-decoration-style: initial; text-decoration-color: initial; float: none; display: inline !important;&quot;&gt;Golang&lt;/span&gt;&lt;br style=&quot;--tw-translate-x:0; --tw-translate-y:0; --tw-rotate:0; --tw-skew-x:0; --tw-skew-y:0; --tw-scale-x:1; --tw-scale-y:1; --tw-pan-x: ; --tw-pan-y: ; --tw-pinch-zoom: ; --tw-scroll-snap-strictness:proximity; --tw-ordinal: ; --tw-slashed-zero: ; --tw-numeric-figure: ; --tw-numeric-spacing: ; --tw-numeric-fraction: ; --tw-ring-inset: ; --tw-ring-offset-width:0px; --tw-ring-offset-color:#fff; --tw-ring-color:rgb(59 130 246 / 0.5); --tw-ring-offset-shadow:0 0 #0000; --tw-ring-shadow:0 0 #0000; --tw-shadow:0 0 #0000; --tw-shadow-colored:0 0 #0000; --tw-blur: ; --tw-brightness: ; --tw-contrast: ; --tw-grayscale: ; --tw-hue-rotate: ; --tw-invert: ; --tw-saturate: ; --tw-sepia: ; --tw-drop-shadow: ; --tw-backdrop-blur: ; --tw-backdrop-brightness: ; --tw-backdrop-contrast: ; --tw-backdrop-grayscale: ; --tw-backdrop-hue-rotate: ; --tw-backdrop-invert: ; --tw-backdrop-opacity: ; --tw-backdrop-saturate: ; --tw-backdrop-sepia: ; border-color: var(--border-color); color: rgb(0, 0, 0); font-family: Helvetica; font-size: 12px; font-style: normal; font-variant-ligatures: normal; font-variant-caps: normal; font-weight: 400; letter-spacing: normal; orphans: 2; text-align: center; text-indent: 0px; text-transform: none; widows: 2; word-spacing: 0px; -webkit-text-stroke-width: 0px; background-color: rgb(251, 251, 251); text-decoration-thickness: initial; text-decoration-style: initial; text-decoration-color: initial;&quot;&gt;Authenticator" style="whiteSpace=wrap;html=1;rounded=1;" vertex="1" parent="1">
          <mxGeometry x="370" y="100" width="120" height="60" as="geometry" />
        </mxCell>
        <mxCell id="0tk76ltDWNP5zIAs27Ty-18" value="PostgresSQL" style="shape=datastore;whiteSpace=wrap;html=1;" vertex="1" parent="1">
          <mxGeometry x="600" y="80" width="120" height="80" as="geometry" />
        </mxCell>
        <mxCell id="0tk76ltDWNP5zIAs27Ty-20" value="Redis Cache" style="rounded=1;whiteSpace=wrap;html=1;" vertex="1" parent="1">
          <mxGeometry x="590" y="180" width="90" height="60" as="geometry" />
        </mxCell>
        <mxCell id="0tk76ltDWNP5zIAs27Ty-23" value="Cache &lt;br&gt;layer for stats" style="text;html=1;strokeColor=none;fillColor=none;align=center;verticalAlign=middle;whiteSpace=wrap;rounded=0;" vertex="1" parent="1">
          <mxGeometry x="410" y="210" width="260" height="30" as="geometry" />
        </mxCell>
        <mxCell id="0tk76ltDWNP5zIAs27Ty-25" value="gPRC" style="text;html=1;strokeColor=none;fillColor=none;align=center;verticalAlign=middle;whiteSpace=wrap;rounded=0;" vertex="1" parent="1">
          <mxGeometry x="380" y="190" width="60" height="30" as="geometry" />
        </mxCell>
        <mxCell id="0tk76ltDWNP5zIAs27Ty-26" value="http&amp;nbsp;&amp;nbsp;" style="text;html=1;strokeColor=none;fillColor=none;align=center;verticalAlign=middle;whiteSpace=wrap;rounded=0;" vertex="1" parent="1">
          <mxGeometry x="250" y="270" width="65" height="30" as="geometry" />
        </mxCell>
        <mxCell id="0tk76ltDWNP5zIAs27Ty-34" style="edgeStyle=orthogonalEdgeStyle;rounded=0;orthogonalLoop=1;jettySize=auto;html=1;entryX=0;entryY=0.5;entryDx=0;entryDy=0;" edge="1" parent="1" source="0tk76ltDWNP5zIAs27Ty-30" target="0tk76ltDWNP5zIAs27Ty-31">
          <mxGeometry relative="1" as="geometry" />
        </mxCell>
        <mxCell id="0tk76ltDWNP5zIAs27Ty-30" value="RabbitMQ" style="rounded=1;whiteSpace=wrap;html=1;" vertex="1" parent="1">
          <mxGeometry x="530" y="280" width="90" height="60" as="geometry" />
        </mxCell>
        <mxCell id="0tk76ltDWNP5zIAs27Ty-36" style="edgeStyle=orthogonalEdgeStyle;rounded=0;orthogonalLoop=1;jettySize=auto;html=1;entryX=0.5;entryY=1;entryDx=0;entryDy=0;" edge="1" parent="1" source="0tk76ltDWNP5zIAs27Ty-31" target="0tk76ltDWNP5zIAs27Ty-35">
          <mxGeometry relative="1" as="geometry" />
        </mxCell>
        <mxCell id="0tk76ltDWNP5zIAs27Ty-31" value="Listener" style="rounded=1;whiteSpace=wrap;html=1;" vertex="1" parent="1">
          <mxGeometry x="800" y="280" width="90" height="60" as="geometry" />
        </mxCell>
        <mxCell id="0tk76ltDWNP5zIAs27Ty-33" style="edgeStyle=orthogonalEdgeStyle;rounded=0;orthogonalLoop=1;jettySize=auto;html=1;" edge="1" parent="1" source="0tk76ltDWNP5zIAs27Ty-32" target="0tk76ltDWNP5zIAs27Ty-13">
          <mxGeometry relative="1" as="geometry" />
        </mxCell>
        <mxCell id="0tk76ltDWNP5zIAs27Ty-32" value="Python&lt;br&gt;batch&lt;br&gt;Provess" style="rounded=1;whiteSpace=wrap;html=1;" vertex="1" parent="1">
          <mxGeometry x="370" y="490" width="90" height="60" as="geometry" />
        </mxCell>
        <mxCell id="0tk76ltDWNP5zIAs27Ty-35" value="Golang&lt;br&gt;Mailer" style="rounded=1;whiteSpace=wrap;html=1;" vertex="1" parent="1">
          <mxGeometry x="800" y="90" width="90" height="60" as="geometry" />
        </mxCell>
      </root>
    </mxGraphModel>
  </diagram>
</mxfile>
